<svg id="Group_71" data-name="Group 71" xmlns="http://www.w3.org/2000/svg" width="18.99" height="19" viewBox="0 0 18.99 19">
  <g id="Group_72" data-name="Group 72">
    <path id="Path_37" data-name="Path 37" d="M16.353,0a5.87,5.87,0,0,1,.877.268,2.881,2.881,0,0,1,1.751,2.738c.016,1.786,0,3.572,0,5.358,0,1.23,0,2.46,0,3.689a.739.739,0,0,1-1.117.669.721.721,0,0,1-.361-.592c-.006-.074,0-.148,0-.222q0-4.422,0-8.843a1.474,1.474,0,0,0-1.1-1.523,1.8,1.8,0,0,0-.476-.056q-6.424,0-12.848,0a1.494,1.494,0,0,0-1.59,1.59q0,6.415,0,12.83a1.5,1.5,0,0,0,1.6,1.6q4.431,0,8.862,0a.811.811,0,0,1,.64.233.707.707,0,0,1,.156.773.718.718,0,0,1-.613.473,1.08,1.08,0,0,1-.148.006q-4.5,0-8.992,0A2.95,2.95,0,0,1,.162,16.975c-.07-.2-.109-.414-.162-.622V2.633A.4.4,0,0,0,.033,2.55,2.881,2.881,0,0,1,1.709.292,6.611,6.611,0,0,1,2.633,0Z" fill="#fff"/>
    <path id="Path_38" data-name="Path 38" d="M280.653,276.755a2.141,2.141,0,0,1-1.334,1.964,2.075,2.075,0,0,1-2.376-.386c-.73-.674-1.414-1.4-2.118-2.1-.651-.651-1.307-1.3-1.946-1.96a1.26,1.26,0,0,1-.294-.5c-.273-.929-.525-1.864-.781-2.8a.734.734,0,0,1,.483-.989.967.967,0,0,1,.488.015q1.4.408,2.8.849a1.123,1.123,0,0,1,.432.271c1.323,1.316,2.638,2.64,3.957,3.96a2.317,2.317,0,0,1,.692,1.676m-3.962-.765,1.061-1.05c-.811-.805-1.632-1.609-2.438-2.427a1.418,1.418,0,0,0-.681-.41c-.349-.088-.691-.2-1.063-.316a6.135,6.135,0,0,1,.177.653,2.482,2.482,0,0,0,.851,1.48c.726.669,1.407,1.387,2.094,2.07m1.085,1.1a.781.781,0,0,0,.848.314.706.706,0,0,0,.532-.6.781.781,0,0,0-.339-.754l-1.042,1.042" transform="translate(-261.665 -259.93)" fill="#fff"/>
    <path id="Path_39" data-name="Path 39" d="M105.614,92.8q2.484,0,4.968,0a.747.747,0,0,1,.748.443.736.736,0,0,1-.61,1.037c-.055.005-.111,0-.167,0h-9.881a.767.767,0,0,1-.8-.483.742.742,0,0,1,.64-1c.074-.006.148,0,.222,0h4.876" transform="translate(-96.121 -89.348)" fill="#fff"/>
    <path id="Path_40" data-name="Path 40" d="M105.6,174.146q-2.475,0-4.95,0a.752.752,0,0,1-.762-.451.737.737,0,0,1,.6-1.028,1.527,1.527,0,0,1,.167-.005h9.9a.763.763,0,0,1,.79.491.738.738,0,0,1-.669.988c-.259.012-.519,0-.778,0h-4.3" transform="translate(-96.115 -166.248)" fill="#fff"/>
    <path id="Path_41" data-name="Path 41" d="M102.3,252.491c.544,0,1.087,0,1.631,0a.743.743,0,1,1,.009,1.482q-1.65,0-3.3,0a.743.743,0,1,1,.009-1.482c.55,0,1.1,0,1.65,0" transform="translate(-96.131 -243.11)" fill="#fff"/>
  </g>
</svg>
