<svg xmlns="http://www.w3.org/2000/svg" width="30.977" height="30.977" viewBox="0 0 30.977 30.977">
  <g id="Group_74" data-name="Group 74" transform="translate(17.193 -0.641) rotate(45)">
    <g id="Group_75" data-name="Group 75" transform="translate(0 0)">
      <path id="Path_42" data-name="Path 42" d="M10.888,37.7a3.207,3.207,0,0,1-1.619-1.048c-.956-.98-1.933-1.94-2.9-2.908-.061-.061-.124-.119-.216-.206-.153.164-.292.325-.444.473a2.126,2.126,0,0,1-3.1,0q-.973-.958-1.931-1.931a2.121,2.121,0,0,1,0-3.113c1.293-1.3,2.61-2.584,3.885-3.906a14.609,14.609,0,0,0,3.826-7.294.539.539,0,0,0-.074-.326,2.142,2.142,0,0,1,1.954-3.15,2.084,2.084,0,0,1,1.444.629q4.023,4.02,8.04,8.045a2.136,2.136,0,0,1-1.32,3.642,2.174,2.174,0,0,1-1.193-.24.67.67,0,0,0-.394-.062A14.713,14.713,0,0,0,11.5,28.59c-.032.022-.062.048-.119.092l.265.27a2.138,2.138,0,0,1,.006,3.151c-.143.146-.292.288-.467.461.544.531,1.093,1.024,1.592,1.563a2.126,2.126,0,0,1-.754,3.413c-.166.069-.343.11-.515.164ZM9.6,18.9a16.359,16.359,0,0,1-3.434,6.542L9.25,28.525a16.37,16.37,0,0,1,6.542-3.438L9.6,18.9M5.153,26.521c-.047.044-.088.081-.127.119Q3.372,28.293,1.72,29.946a.731.731,0,0,0,0,1.174L3.554,32.95a.738.738,0,0,0,1.209,0L8.018,29.69c.054-.054.1-.112.144-.155L5.153,26.521M18.96,24.6a.862.862,0,0,0-.3-.713q-3.93-3.925-7.857-7.854c-.045-.045-.088-.091-.136-.132a.7.7,0,0,0-.818-.083.646.646,0,0,0-.338.72,1.147,1.147,0,0,0,.291.5q3.919,3.936,7.851,7.86a1.407,1.407,0,0,0,.173.162.687.687,0,0,0,.738.072.657.657,0,0,0,.4-.528M7.207,32.569c1.164,1.165,2.335,2.342,3.512,3.512a.653.653,0,0,0,.657.172.71.71,0,0,0,.286-1.235q-1.681-1.69-3.37-3.371c-.032-.032-.069-.058-.092-.078l-.993,1m3.007-3.01-.99.935,1,1c.918-.811.924-1.129-.012-1.94" transform="translate(0 -13.389)" fill="#fff"/>
      <path id="Path_43" data-name="Path 43" d="M272.668,23.175a2.228,2.228,0,0,1-.27.479c-.451.476-.919.937-1.389,1.4a.711.711,0,1,1-1-1.006q.689-.7,1.392-1.393a.689.689,0,0,1,.806-.16.818.818,0,0,1,.464.684" transform="translate(-252.662 -21.001)" fill="#fff"/>
      <path id="Path_44" data-name="Path 44" d="M293.659,91.172c-.237,0-.475,0-.712,0a.711.711,0,1,1-.006-1.421q.7-.011,1.4,0a.711.711,0,1,1,.006,1.421c-.229.006-.459,0-.689,0" transform="translate(-273.679 -84.051)" fill="#fff"/>
      <path id="Path_45" data-name="Path 45" d="M226.165,1.435c0,.23,0,.459,0,.688a.708.708,0,0,1-1.416.048c-.018-.5-.018-1,0-1.5a.709.709,0,0,1,1.416.047c.005.237,0,.475,0,.712" transform="translate(-210.476 0.001)" fill="#fff"/>
      <path id="Path_46" data-name="Path 46" d="M56.758,243.8a2.579,2.579,0,0,1-.284.5c-.3.334-.629.646-.952.96a.711.711,0,1,1-1-1.007c.326-.334.655-.666.992-.988a.675.675,0,0,1,.791-.133.811.811,0,0,1,.457.672" transform="translate(-50.839 -227.636)" fill="#fff"/>
    </g>
  </g>
</svg>
