<svg id="Layer_2" data-name="Layer 2" xmlns="http://www.w3.org/2000/svg" width="17.58" height="21.167" viewBox="0 0 17.58 21.167">
  <g id="Layer_1" data-name="Layer 1" transform="translate(0 0)">
    <g id="document" transform="translate(0 0)">
      <path id="Path_26" data-name="Path 26" d="M34.637,7.534H28.9a.9.9,0,0,1-.9-.9V.9a.9.9,0,1,1,1.794,0V5.74h4.843a.9.9,0,0,1,0,1.794Z" transform="translate(-17.954 0)" fill="#fff"/>
      <path id="Path_27" data-name="Path 27" d="M13.813,21.167H3.767A3.771,3.771,0,0,1,0,17.4V3.767A3.771,3.771,0,0,1,3.767,0h8.61a.9.9,0,0,1,.635.262l4.305,4.305a.9.9,0,0,1,.262.635V17.4a3.771,3.771,0,0,1-3.767,3.767ZM3.767,1.794A1.977,1.977,0,0,0,1.794,3.767V17.4a1.977,1.977,0,0,0,1.973,1.973H13.813A1.977,1.977,0,0,0,15.786,17.4V5.561L12,1.794Z" transform="translate(0 0)" fill="#fff"/>
      <path id="Path_28" data-name="Path 28" d="M15.637,30.464H9.9a.9.9,0,1,1,0-1.794h5.74a.9.9,0,1,1,0,1.794Z" transform="translate(-5.771 -18.384)" fill="#fff"/>
      <path id="Path_29" data-name="Path 29" d="M18.507,43.124H9.9a.9.9,0,1,1,0-1.794h8.61a.9.9,0,1,1,0,1.794Z" transform="translate(-5.771 -26.502)" fill="#fff"/>
    </g>
  </g>
</svg>
