<svg xmlns="http://www.w3.org/2000/svg" xmlns:xlink="http://www.w3.org/1999/xlink" width="23.608" height="22.547" viewBox="0 0 23.608 22.547">
  <defs>
    <clipPath id="clip-path">
      <rect id="Rectangle_32" data-name="Rectangle 32" width="23.608" height="22.547" fill="#fff"/>
    </clipPath>
  </defs>
  <g id="Group_159" data-name="Group 159" transform="translate(-1.145 -1.094)">
    <g id="Group_158" data-name="Group 158" transform="translate(1.145 1.094)" clip-path="url(#clip-path)">
      <path id="Path_126" data-name="Path 126" d="M23.608,17.234a1.116,1.116,0,0,1-1.132.836c-.04,0-.094.061-.119.106-.04.073-.051.163-.092.235a.628.628,0,0,0,.049.843.925.925,0,0,1-.1,1.191,8.736,8.736,0,0,1-.7.7,1.074,1.074,0,0,1-1.531-.155c-.257.1-.521.2-.777.314-.041.018-.066.109-.07.168A1.054,1.054,0,0,1,18,22.546c-.238,0-.476,0-.715,0a1.026,1.026,0,0,1-1.074-1c-.011-.176-.061-.273-.235-.3a.129.129,0,0,1-.043-.017.723.723,0,0,0-.965.042.9.9,0,0,1-1.147-.128c-.239-.217-.47-.445-.686-.684a1.01,1.01,0,0,1,.014-1.4A.248.248,0,0,0,13.2,18.7a1.076,1.076,0,0,1-.143-.338c-.051-.246-.181-.31-.43-.307-1.175.015-2.351.008-3.527.006a.467.467,0,0,1-.529-.429.452.452,0,0,1,.5-.5c.8,0,1.6,0,2.4,0h.255c0-.3,0-.57,0-.844A1.057,1.057,0,0,1,12.8,15.129c.07-.006.139-.081.2-.136.03-.029.029-.087.049-.127A.728.728,0,0,0,13,13.918a.91.91,0,0,1,.12-1.169c.218-.238.446-.468.684-.686a1.01,1.01,0,0,1,1.4.021.245.245,0,0,0,.337.049c.2-.107.421-.183.629-.27a2.958,2.958,0,0,1,.067-.457.957.957,0,0,1,.852-.736,6.584,6.584,0,0,1,1.058-.011.989.989,0,0,1,.955.947c.015.2.077.312.275.343a.306.306,0,0,1,.107.041.6.6,0,0,0,.841-.051c.138-.136.408-.136.65-.207V7.11H.938c0,.082-.011.163-.011.244q0,4.042,0,8.084a1.935,1.935,0,0,0,.316,1.137,1.2,1.2,0,0,0,1.049.562c.861-.005,1.721,0,2.582,0a.457.457,0,0,1,.5.435.436.436,0,0,1-.4.481c-1.021.007-2.048.054-3.063-.032A2.219,2.219,0,0,1,.048,16.052,3.757,3.757,0,0,1,0,15.478Q0,9.033,0,2.589A2.626,2.626,0,0,1,.928.465,1.924,1.924,0,0,1,2.2,0q8.76,0,17.52,0a2.239,2.239,0,0,1,2.128,1.869,4.174,4.174,0,0,1,.078.848c.005,3.164,0,6.329.008,9.493a.528.528,0,0,0,.1.33,1.1,1.1,0,0,1,.025,1.74c.1.252.2.508.306.76a.16.16,0,0,0,.115.086,1.125,1.125,0,0,1,1.126.811ZM20.993,6.144c0-.256,0-.486,0-.716,0-1.024.016-2.049-.014-3.072a1.388,1.388,0,0,0-1.5-1.428H12.127q-4.9,0-9.8,0a1.187,1.187,0,0,0-1.155.691,2.322,2.322,0,0,0-.235.925C.91,3.688.927,4.835.928,5.983a1.447,1.447,0,0,0,.018.161Zm.629,7.2a3.121,3.121,0,0,1-.382-.274c-.4-.391-.4-.394-.792-.013a.517.517,0,0,1-.721.094,9.43,9.43,0,0,0-1.079-.447c-.352-.119-.462-.233-.466-.61-.005-.51-.005-.51-.516-.51-.543,0-.543,0-.55.549,0,.347-.114.459-.446.574a9,9,0,0,0-1.057.442.526.526,0,0,1-.757-.105c-.419-.411-.31-.414-.727,0-.384.381-.382.382,0,.774.253.262.256.4.093.742a8.962,8.962,0,0,0-.428,1.039c-.118.352-.236.465-.607.47-.521.006-.523.006-.52.529,0,.622-.067.53.542.536.354,0,.469.11.581.436a9.1,9.1,0,0,0,.434,1.062c.172.35.169.493-.111.775-.355.357-.355.357,0,.709.4.4.4.4.789.012.252-.247.4-.249.72-.09a8.563,8.563,0,0,0,1.036.432c.392.132.488.234.49.662,0,.544-.057.485.475.486.58,0,.58,0,.591-.583.006-.32.113-.434.422-.543a9.291,9.291,0,0,0,1.06-.434c.373-.186.5-.186.793.105.415.408.3.4.707,0s.4-.4.009-.791c-.244-.249-.245-.4-.087-.722a8.8,8.8,0,0,0,.432-1.038c.131-.387.224-.475.642-.476.553,0,.5.048.5-.493,0-.561,0-.561-.548-.573H22.11a.505.505,0,0,1-.543-.428,6.722,6.722,0,0,0-.322-.861c-.321-.667-.33-.662.178-1.194.046-.048.085-.1.2-.241" transform="translate(0 -0.001)" fill="#fff"/>
      <path id="Path_127" data-name="Path 127" d="M149.807,165.32l-1.032-1.165a1.532,1.532,0,0,1-.133-.159.463.463,0,0,1,.075-.607.437.437,0,0,1,.606,0c.474.513.941,1.033,1.391,1.567a.577.577,0,0,1-.027.766c-.43.5-.87.993-1.314,1.482a.462.462,0,1,1-.687-.619c.279-.327.57-.644.855-.965.085-.1.17-.193.265-.3" transform="translate(-139.408 -153.211)" fill="#fff"/>
      <path id="Path_128" data-name="Path 128" d="M43.678,165.379l.987,1.113a2.279,2.279,0,0,1,.164.194.463.463,0,0,1-.064.625.455.455,0,0,1-.627-.02c-.2-.208-.392-.433-.586-.652-.24-.27-.484-.537-.719-.812a.629.629,0,0,1,0-.9q.621-.713,1.256-1.415a.463.463,0,0,1,.675-.072.472.472,0,0,1,.011.7c-.358.41-.722.816-1.1,1.237" transform="translate(-40.018 -153.269)" fill="#fff"/>
      <path id="Path_129" data-name="Path 129" d="M100.983,157.987c-.12.51-.224.959-.33,1.408-.2.83-.393,1.66-.6,2.489a.815.815,0,0,1-.167.345.406.406,0,0,1-.527.076.43.43,0,0,1-.234-.5c.14-.615.286-1.228.432-1.841.156-.658.31-1.317.471-1.974.093-.38.453-.548.728-.331a1.234,1.234,0,0,1,.225.332" transform="translate(-93.008 -147.854)" fill="#fff"/>
      <path id="Path_130" data-name="Path 130" d="M106.6,278.63a.465.465,0,0,1-.46.477.477.477,0,0,1-.475-.466.465.465,0,0,1,.452-.46.457.457,0,0,1,.483.449" transform="translate(-99.159 -261.045)" fill="#fff"/>
      <path id="Path_131" data-name="Path 131" d="M202.782,35.483c-.691,0-1.383.011-2.074,0a1.563,1.563,0,0,1,.071-3.125c1.352,0,2.7-.008,4.056,0a1.564,1.564,0,1,1,0,3.128c-.684.007-1.367,0-2.051,0Zm.031-2.193c-.668,0-1.336,0-2,0a.637.637,0,0,0-.689.622.647.647,0,0,0,.7.64c.215,0,.43,0,.645,0q1.647,0,3.295,0a.678.678,0,0,0,.662-.332.626.626,0,0,0-.6-.931c-.668-.009-1.336,0-2,0" transform="translate(-186.92 -30.358)" fill="#fff"/>
      <path id="Path_132" data-name="Path 132" d="M113.455,33.987a1.559,1.559,0,1,1-1.567-1.567,1.565,1.565,0,0,1,1.567,1.567m-1.567-.629a.621.621,0,0,0-.615.643.63.63,0,0,0,.623.615.641.641,0,0,0,.631-.635.632.632,0,0,0-.639-.623" transform="translate(-103.54 -30.422)" fill="#fff"/>
      <path id="Path_133" data-name="Path 133" d="M44.8,33.965a1.555,1.555,0,1,1,1.555,1.575A1.563,1.563,0,0,1,44.8,33.965m2.179.01a.625.625,0,0,0-1.251-.008.626.626,0,1,0,1.251.008" transform="translate(-42.042 -30.414)" fill="#fff"/>
      <path id="Path_134" data-name="Path 134" d="M240.757,226.17a2.841,2.841,0,1,1,2.852,2.84,2.837,2.837,0,0,1-2.852-2.84m.932-.018a1.909,1.909,0,1,0,1.91-1.9,1.914,1.914,0,0,0-1.91,1.9" transform="translate(-225.926 -209.565)" fill="#fff"/>
    </g>
  </g>
</svg>
