<svg id="Group_68" data-name="Group 68" xmlns="http://www.w3.org/2000/svg" width="21.647" height="21.64" viewBox="0 0 21.647 21.64">
  <g id="Group_69" data-name="Group 69" transform="translate(0 0)">
    <path id="Path_35" data-name="Path 35" d="M0,4.4V3.636C.068,3.35.123,3.06.207,2.78A.628.628,0,0,1,1.27,2.463c.266.22.526.447.789.67l.7.588.968-.962c-.032-.04-.074-.094-.119-.147-.378-.446-.76-.888-1.135-1.337A.631.631,0,0,1,2.793.2,4,4,0,0,1,7.958,4.734a.344.344,0,0,0,.112.351q1.389,1.376,2.767,2.762c.043.043.09.081.17.152a1.833,1.833,0,0,1,.148-.194Q13,5.957,14.847,4.115a.835.835,0,0,0,.257-.487,7.175,7.175,0,0,1,.207-.99.871.871,0,0,1,.307-.451c1.065-.7,2.143-1.378,3.22-2.059a.623.623,0,0,1,.86.1q.863.855,1.719,1.718a.621.621,0,0,1,.1.859Q20.5,4.42,19.47,6.029a.686.686,0,0,1-.476.319c-.353.066-.706.13-1.055.214a.751.751,0,0,0-.34.18q-1.9,1.883-3.784,3.777c-.048.048-.094.1-.142.151.028.033.044.056.064.075.956.957,1.911,1.915,2.874,2.864a.389.389,0,0,0,.3.07,3.954,3.954,0,0,1,3.332.9,4,4,0,0,1,1.2,4.312A.631.631,0,0,1,20.4,19.2c-.088-.07-.172-.145-.258-.218L18.9,17.923l-.97.971c.407.48.835.976,1.254,1.478a.627.627,0,0,1-.316,1.063c-.281.085-.571.138-.857.206h-.8a.646.646,0,0,0-.116-.038,4,4,0,0,1-3.4-4.705.328.328,0,0,0-.105-.332Q12.2,15.19,10.821,13.8c-.044-.044-.091-.087-.125-.119l-.684.676c.017.02.041.053.07.082.318.319.642.633.953.958a.631.631,0,0,1-.89.9c-.051-.046-.1-.094-.2-.185a1.555,1.555,0,0,1-.151.214q-2.156,2.16-4.314,4.318a3.267,3.267,0,0,1-1.528.894c-.148.038-.3.069-.447.1H2.875a.834.834,0,0,0-.12-.036A3.147,3.147,0,0,1,.108,19.259C.066,19.1.036,18.931,0,18.767v-.592a.5.5,0,0,0,.033-.1A3.286,3.286,0,0,1,1.061,16.1c1.436-1.421,2.86-2.854,4.289-4.282.049-.049.094-.1.146-.156-.065-.07-.126-.128-.178-.193a.633.633,0,0,1,.959-.826c.335.339.671.676.993,1l.688-.688a.222.222,0,0,0-.028-.038C6.963,9.947,6,8.98,5.027,8.021a.362.362,0,0,0-.279-.061A4.014,4.014,0,0,1,.138,5.053C.08,4.837.045,4.615,0,4.4m9.137,9.056a1.441,1.441,0,0,1,.133-.178q3.8-3.8,7.6-7.605a1.017,1.017,0,0,1,.583-.307,8.694,8.694,0,0,0,.888-.181.539.539,0,0,0,.287-.2c.369-.557.722-1.125,1.081-1.689l.472-.74L19.1,1.465c-.831.529-1.68,1.067-2.525,1.612a.292.292,0,0,0-.1.172c-.068.3-.14.6-.185.909a1.123,1.123,0,0,1-.349.653Q12.15,8.593,8.366,12.382c-.054.054-.1.11-.146.154l.917.916m-2.744-.882c-.032.029-.059.052-.084.076q-2.225,2.225-4.45,4.45A1.9,1.9,0,1,0,4.55,19.778q2.226-2.209,4.437-4.434c.033-.033.06-.071.082-.1L6.393,12.571m5.175.233a1.724,1.724,0,0,1,.182.14c1.007,1,2.008,2.017,3.023,3.014a.788.788,0,0,1,.232.893,2.569,2.569,0,0,0-.041,1.437A2.732,2.732,0,0,0,17.5,20.354c-.058-.073-.1-.132-.152-.189-.259-.306-.524-.609-.778-.919a.6.6,0,0,1,0-.843q.906-.932,1.837-1.838a.6.6,0,0,1,.811-.032c.113.084.217.18.324.271l.826.7c0-.073,0-.106,0-.139A2.733,2.733,0,0,0,16.861,15a.805.805,0,0,1-.895-.228c-1-1.02-2.019-2.026-3.03-3.036-.053-.053-.11-.1-.155-.145L11.569,12.8M4.132,1.266c.078.1.124.154.172.211.26.306.524.609.778.919a.6.6,0,0,1,0,.844q-.9.932-1.838,1.837a.6.6,0,0,1-.812.028c-.118-.089-.227-.19-.34-.285l-.8-.677a.7.7,0,0,0-.01.093,2.731,2.731,0,0,0,3.49,2.407.836.836,0,0,1,.93.24C6.7,7.9,7.708,8.9,8.714,9.906c.053.053.11.1.136.129l1.206-1.213A1.556,1.556,0,0,1,9.9,8.7c-1-1-2-2.008-3.009-3a.827.827,0,0,1-.241-.93,2.549,2.549,0,0,0-.22-2.062A2.742,2.742,0,0,0,4.132,1.266" transform="translate(0 0)" fill="#fff"/>
    <path id="Path_36" data-name="Path 36" d="M48.755,260.191a1.929,1.929,0,0,1-.25.443q-1.579,1.6-3.178,3.183a.633.633,0,1,1-.9-.89q1.586-1.594,3.18-3.182a.627.627,0,0,1,.716-.157.726.726,0,0,1,.431.6" transform="translate(-41.724 -244.884)" fill="#fff"/>
  </g>
</svg>
